<?xml version="1.0" encoding="UTF-8" standalone="no"?>
<svg width="542px" height="494px" viewBox="0 0 542 494" version="1.1" xmlns="http://www.w3.org/2000/svg" xmlns:xlink="http://www.w3.org/1999/xlink" xmlns:sketch="http://www.bohemiancoding.com/sketch/ns">
    <!-- Generator: Sketch 3.3.1 (12002) - http://www.bohemiancoding.com/sketch -->
    <title>robot-blue</title>
    <desc>Created with Sketch.</desc>
    <defs></defs>
    <g id="Page-1" stroke="none" stroke-width="1" fill="none" fill-rule="evenodd" sketch:type="MSPage">
        <g id="robot-blue" sketch:type="MSLayerGroup" fill="#981916">
            <path d="M378.177,333.157 C371.104,333.157 365.374,327.42 365.374,320.34 C365.374,313.267 371.103,307.53 378.177,307.53 C385.25,307.53 390.987,313.267 390.987,320.34 C390.986,327.42 385.25,333.157 378.177,333.157 L378.177,333.157 Z M337.104,333.157 C330.031,333.157 324.301,327.42 324.301,320.34 C324.301,313.267 330.031,307.53 337.104,307.53 C344.177,307.53 349.914,313.267 349.914,320.34 C349.914,327.42 344.177,333.157 337.104,333.157 L337.104,333.157 Z M419.997,277.103 L119.07,277.103 C112.432,277.103 107.051,282.484 107.051,289.128 L107.051,352.16 C107.051,358.797 112.432,364.185 119.07,364.185 L419.997,364.185 C426.634,364.185 432.015,358.797 432.015,352.16 L432.015,289.128 C432.015,282.484 426.634,277.103 419.997,277.103 L419.997,277.103 Z" id="Shape" sketch:type="MSShapeGroup"></path>
            <path d="M37.877,348.203 L37.87,343.178 L42.888,343.178 C55.305,343.178 65.407,333.07 65.407,320.644 C65.407,308.219 55.306,298.111 42.888,298.111 L37.878,298.111 L37.885,273.805 C16.252,278.416 0.03,297.631 0.03,320.643 C0.03,343.656 16.26,362.877 37.885,367.481 C37.891,360.41 37.891,353.482 37.877,348.203 L37.877,348.203 Z" id="Shape" sketch:type="MSShapeGroup"></path>
            <path d="M95.768,320.645 C95.768,294.191 74.338,272.747 47.898,272.747 L47.898,288.476 C63.467,290.894 75.427,304.394 75.427,320.645 C75.427,336.89 63.475,350.389 47.906,352.815 C47.913,357.542 47.906,363.018 47.906,368.544 C74.338,368.536 95.768,347.092 95.768,320.645 L95.768,320.645 Z" id="Shape" sketch:type="MSShapeGroup"></path>
            <g id="Group" transform="translate(445.000000, 272.000000)" sketch:type="MSShapeGroup">
                <path d="M57.955,21.921 L57.969,26.939 L52.944,26.939 C40.527,26.939 30.425,37.047 30.425,49.472 C30.425,61.897 40.526,72.005 52.944,72.005 L57.955,72.005 L57.955,95.533 C79.689,91.009 96.028,71.737 96.028,48.644 C96.028,25.552 79.689,6.271 57.947,1.755 C57.94,9.134 57.94,16.417 57.955,21.921 L57.955,21.921 Z" id="Shape"></path>
                <path d="M0.29,48.645 C0.29,75.02 21.603,96.413 47.934,96.537 L47.934,81.643 C32.365,79.225 20.413,65.725 20.413,49.474 C20.413,33.229 32.358,19.73 47.927,17.305 C47.927,12.345 47.927,6.557 47.934,0.755 C21.603,0.877 0.29,22.27 0.29,48.645 L0.29,48.645 Z" id="Shape"></path>
            </g>
            <path d="M227.684,143.437 C227.684,162.128 217.989,177.284 206.03,177.284 C194.07,177.284 184.375,162.129 184.375,143.437 C184.375,124.745 194.069,109.597 206.03,109.597 C217.989,109.597 227.684,124.745 227.684,143.437 L227.684,143.437 Z" id="Shape" sketch:type="MSShapeGroup"></path>
            <path d="M349.841,143.437 C349.841,162.128 340.147,177.284 328.187,177.284 C316.227,177.284 306.533,162.129 306.533,143.437 C306.533,124.745 316.227,109.597 328.187,109.597 C340.147,109.597 349.841,124.745 349.841,143.437 L349.841,143.437 Z" id="Shape" sketch:type="MSShapeGroup"></path>
            <path d="M421.936,392.638 C421.936,386.219 416.737,381.019 410.317,381.019 L128.562,381.019 C122.142,381.019 116.943,386.218 116.943,392.638 L116.943,399.9 C116.943,451.64 185.218,493.576 269.44,493.576 C353.662,493.576 421.937,451.639 421.937,399.9 L421.937,392.638 L421.936,392.638 Z" id="Shape" sketch:type="MSShapeGroup"></path>
            <path d="M291.05,237.752 C289.699,227.222 280.702,219.082 269.802,219.082 C258.88,219.082 249.868,227.251 248.547,237.817 C174.209,231.558 116.943,192.395 116.943,145.012 C116.943,93.272 185.218,51.336 269.44,51.336 C353.662,51.336 421.937,93.273 421.937,145.012 C421.936,192.243 365.04,231.311 291.05,237.752 L291.05,237.752 Z M102.259,261.926 L437.344,261.926 C445.623,236.227 469.732,217.629 498.183,217.629 L498.909,217.629 C498.502,97.643 395.916,0.503 269.438,0.503 C142.953,0.503 40.374,97.651 39.967,217.644 C40.446,217.637 40.933,217.629 41.419,217.629 C69.872,217.629 93.98,236.227 102.259,261.926 L102.259,261.926 Z" id="Shape" sketch:type="MSShapeGroup"></path>
        </g>
    </g>
</svg>